<svg width="21" height="20" viewBox="0 0 21 20">
  <path d="M10.2082 4.87225C7.37046 4.87225 5.08156 7.16166 5.08156 10C5.08156 12.8383 7.37046 15.1277 10.2082 15.1277C13.0459 15.1277 15.3348 12.8383 15.3348 10C15.3348 7.16166 13.0459 4.87225 10.2082 4.87225ZM10.2082 13.3337C8.37437 13.3337 6.8752 11.8387 6.8752 10C6.8752 8.16133 8.3699 6.66629 10.2082 6.66629C12.0464 6.66629 13.5411 8.16133 13.5411 10C13.5411 11.8387 12.042 13.3337 10.2082 13.3337V13.3337ZM16.7402 4.6625C16.7402 5.32746 16.2048 5.85853 15.5445 5.85853C14.8797 5.85853 14.3487 5.32299 14.3487 4.6625C14.3487 4.00201 14.8841 3.46647 15.5445 3.46647C16.2048 3.46647 16.7402 4.00201 16.7402 4.6625ZM20.1357 5.87638C20.0598 4.27424 19.6939 2.85507 18.5205 1.68582C17.3515 0.516568 15.9326 0.150619 14.3309 0.070289C12.68 -0.0234296 7.73187 -0.0234296 6.081 0.070289C4.48368 0.146156 3.06483 0.512105 1.89138 1.68136C0.717924 2.85061 0.356518 4.26978 0.276206 5.87192C0.182508 7.52315 0.182508 12.4724 0.276206 14.1236C0.352056 15.7258 0.717924 17.1449 1.89138 18.3142C3.06483 19.4834 4.47922 19.8494 6.081 19.9297C7.73187 20.0234 12.68 20.0234 14.3309 19.9297C15.9326 19.8538 17.3515 19.4879 18.5205 18.3142C19.6895 17.1449 20.0553 15.7258 20.1357 14.1236C20.2294 12.4724 20.2294 7.52761 20.1357 5.87638V5.87638ZM18.0029 15.8953C17.6549 16.7701 16.9812 17.4439 16.1022 17.7965C14.786 18.3186 11.6627 18.1981 10.2082 18.1981C8.75362 18.1981 5.6259 18.3142 4.31413 17.7965C3.43962 17.4484 2.76589 16.7745 2.41341 15.8953C1.89138 14.5788 2.01184 11.4549 2.01184 10C2.01184 8.54513 1.89584 5.41671 2.41341 4.10465C2.76143 3.22995 3.43516 2.55606 4.31413 2.2035C5.63036 1.68136 8.75362 1.80185 10.2082 1.80185C11.6627 1.80185 14.7904 1.68582 16.1022 2.2035C16.9767 2.5516 17.6504 3.22548 18.0029 4.10465C18.525 5.42118 18.4045 8.54513 18.4045 10C18.4045 11.4549 18.525 14.5833 18.0029 15.8953Z"/>
</svg>
