<svg width="21" height="20" viewBox="0 0 21 20">
  <path d="M18.2689 0H2.5546C1.37156 0 0.411743 0.959821 0.411743 2.14286V17.8571C0.411743 19.0402 1.37156 20 2.5546 20H18.2689C19.4519 20 20.4117 19.0402 20.4117 17.8571V2.14286C20.4117 0.959821 19.4519 0 18.2689 0ZM16.0859 7.08929C16.0948 7.21429 16.0948 7.34375 16.0948 7.46875C16.0948 11.3393 13.1484 15.7991 7.76442 15.7991C6.10371 15.7991 4.56353 15.317 3.26889 14.4866C3.50549 14.5134 3.73317 14.5223 3.97424 14.5223C5.34478 14.5223 6.60371 14.058 7.60817 13.2723C6.32246 13.2455 5.2421 12.4018 4.87156 11.2411C5.32246 11.308 5.72871 11.308 6.19299 11.1875C4.85371 10.9152 3.84924 9.73661 3.84924 8.3125V8.27679C4.23764 8.49554 4.69299 8.62946 5.17067 8.64732C4.76908 8.38019 4.43986 8.0178 4.2124 7.59248C3.98494 7.16716 3.86631 6.69214 3.8671 6.20982C3.8671 5.66518 4.00996 5.16518 4.26442 4.73214C5.70639 6.50893 7.87156 7.66964 10.3001 7.79464C9.88496 5.80804 11.3716 4.19643 13.1573 4.19643C14.001 4.19643 14.76 4.54911 15.2957 5.12054C15.9564 4.99554 16.5903 4.75 17.1528 4.41518C16.9341 5.09375 16.4742 5.66518 15.8671 6.02679C16.4564 5.96429 17.0278 5.79911 17.5546 5.57143C17.1573 6.15625 16.6573 6.67411 16.0859 7.08929Z"/>
</svg>
